# xmcd
#
# Track frame offsets:
#	150
#	16447
#	32447
#	48680
#	64855
#	80079
#	98505
#	115955
#	131580
#	147242
#	167992
#	184292
#	200290
#	216525
#	232697
#	247922
#	266350
#	283797
#	299420
#	315085
#
# Disc length: 4477 seconds
#
# Revision: 2
# Processed by: cddbd v1.5.1PL2 Copyright (c) Steve Scherf et al.
# Submitted via: audiograbber 1.83.01
#
DISCID=23117b14
DTITLE=Top Hits Monthly Country -  THC0411
DYEAR=1900
DGENRE=Country
TTITLE0=Keith, Toby (Vocal) - Stays In Mexico
TTITLE1=Lonestar (Vocal) - Mr Mom
TTITLE2=Montgomery Gentry (Vocal) - You Do Your Thing
TTITLE3=Worley, Darryl (Vocal) - Awful Beautiful Life
TTITLE4=Walker, Clay (Vocal) - Jesus Was A Country Boy
TTITLE5=Sugarland (Vocal) - Baby Girl
TTITLE6=Willmon, Trent (Vocal) - Dixie Rose Deluxe's
TTITLE7=Shelton, Blake (Vocal) - Some Beach
TTITLE8=Restless Heart (Vocal) - Feel My Way To You
TTITLE9=Montgomery, John Michael (Vocal) - Goes Good With Beer
TTITLE10=Keith, Toby - Stays In Mexico
TTITLE11=Lonestar - Mr Mom
TTITLE12=Montgomery Gentry - You Do Your Thing
TTITLE13=Worley, Darryl - Awful Beautiful Life
TTITLE14=Walker, Clay - Jesus Was A Country Boy
TTITLE15=Sugarland - Baby Girl
TTITLE16=Willmon, Trent - Dixie Rose Deluxe's
TTITLE17=Shelton, Blake - Some Beach
TTITLE18=Restless Heart - Feel My Way To You
TTITLE19=Montgomery, John Michael - Goes Good With Beer
EXTD=
EXTT0=
EXTT1=
EXTT2=
EXTT3=
EXTT4=
EXTT5=
EXTT6=
EXTT7=
EXTT8=
EXTT9=
EXTT10=
EXTT11=
EXTT12=
EXTT13=
EXTT14=
EXTT15=
EXTT16=
EXTT17=
EXTT18=
EXTT19=
PLAYORDER=
